<?xml version="1.0" encoding="UTF-8" standalone="no"?>
<!-- Created with Inkscape (http://www.inkscape.org/) -->

<svg
   xmlns:dc="http://purl.org/dc/elements/1.1/"
   xmlns:cc="http://creativecommons.org/ns#"
   xmlns:rdf="http://www.w3.org/1999/02/22-rdf-syntax-ns#"
   xmlns:svg="http://www.w3.org/2000/svg"
   xmlns="http://www.w3.org/2000/svg"
   xmlns:sodipodi="http://sodipodi.sourceforge.net/DTD/sodipodi-0.dtd"
   xmlns:inkscape="http://www.inkscape.org/namespaces/inkscape"
   width="18"
   height="18"
   id="svg2"
   version="1.1"
   inkscape:version="0.48.4 r"
   sodipodi:docname="New document 1">
  <defs
     id="defs4" />
  <sodipodi:namedview
     id="base"
     pagecolor="#ffffff"
     bordercolor="#666666"
     borderopacity="1.0"
     inkscape:pageopacity="0.0"
     inkscape:pageshadow="2"
     inkscape:zoom="1"
     inkscape:cx="-6"
     inkscape:cy="43"
     inkscape:document-units="px"
     inkscape:current-layer="layer1"
     showgrid="false"
     fit-margin-top="0"
     fit-margin-left="0"
     fit-margin-right="0"
     fit-margin-bottom="0"
     inkscape:window-width="484"
     inkscape:window-height="416"
     inkscape:window-x="1650"
     inkscape:window-y="50"
     inkscape:window-maximized="0" />
  <metadata
     id="metadata7">
    <rdf:RDF>
      <cc:Work
         rdf:about="">
        <dc:format>image/svg+xml</dc:format>
        <dc:type
           rdf:resource="http://purl.org/dc/dcmitype/StillImage" />
        <dc:title></dc:title>
      </cc:Work>
    </rdf:RDF>
  </metadata>
  <g
     inkscape:label="Layer 1"
     inkscape:groupmode="layer"
     id="layer1"
     transform="translate(-381,-557.3622)">
    <path
       id="path2986"
       d="m 399,566.3622 c 0,-0.338 -0.022,-0.671 -0.059,-1 l -1.011,0 c -0.451,-3.617 -3.313,-6.479 -6.93,-6.931 v -1.01 c -0.329,-0.037 -0.662,-0.059 -1,-0.059 -0.338,0 -0.671,0.022 -1,0.059 v 1.011 c -3.617,0.451 -6.479,3.313 -6.931,6.93 l -1.01,0 c -0.037,0.329 -0.059,0.662 -0.059,1 0,0.338 0.022,0.671 0.059,1 h 1.011 c 0.451,3.617 3.313,6.479 6.93,6.931 v 1.011 c 0.329,0.036 0.662,0.058 1,0.058 0.338,0 0.671,-0.022 1,-0.059 v -1.011 c 3.616,-0.452 6.479,-3.313 6.931,-6.93 h 1.011 c 0.036,-0.328 0.058,-0.661 0.058,-1 z m -8,5.91 v -0.91 c 0,-0.553 -0.448,-1 -1,-1 -0.552,0 -1,0.447 -1,1 v 0.91 c -2.51,-0.422 -4.487,-2.398 -4.909,-4.909 l 0.909,-10e-4 c 0.553,0 1,-0.448 1,-1 0,-0.552 -0.447,-1 -1,-1 h -0.91 c 0.423,-2.51 2.4,-4.487 4.91,-4.91 v 0.91 c 0,0.552 0.448,1 1,1 0.552,0 1,-0.448 1,-1 v -0.91 c 2.511,0.422 4.488,2.399 4.91,4.91 H 395 c -0.553,0 -1,0.448 -1,1 0,0.552 0.447,1 1,1 l 0.91,10e-4 c -0.423,2.511 -2.399,4.487 -4.91,4.909 z"
       inkscape:connector-curvature="0"
       style="fill:#ffffff" />
  </g>
</svg>
